<?xml version="1.0" encoding="UTF-8" standalone="no"?>
<!-- Created with Inkscape (http://www.inkscape.org/) -->

<svg
   width="172"
   height="172"
   viewBox="0 0 45.508332 45.508335"
   version="1.1"
   id="svg8"
   inkscape:version="1.1 (c4e8f9ed74, 2021-05-24)"
   sodipodi:docname="success.svg"
   inkscape:export-filename="paymentreceived.png"
   inkscape:export-xdpi="96"
   inkscape:export-ydpi="96"
   xmlns:inkscape="http://www.inkscape.org/namespaces/inkscape"
   xmlns:sodipodi="http://sodipodi.sourceforge.net/DTD/sodipodi-0.dtd"
   xmlns="http://www.w3.org/2000/svg"
   xmlns:svg="http://www.w3.org/2000/svg"
   xmlns:rdf="http://www.w3.org/1999/02/22-rdf-syntax-ns#"
   xmlns:cc="http://creativecommons.org/ns#"
   xmlns:dc="http://purl.org/dc/elements/1.1/">
  <defs
     id="defs2">
    <marker
       inkscape:stockid="DotL"
       orient="auto"
       refY="0.0"
       refX="0.0"
       id="DotL"
       style="overflow:visible"
       inkscape:isstock="true">
      <path
         id="path4573"
         d="M -2.5,-1.0 C -2.5,1.7600000 -4.7400000,4.0 -7.5,4.0 C -10.260000,4.0 -12.5,1.7600000 -12.5,-1.0 C -12.5,-3.7600000 -10.260000,-6.0 -7.5,-6.0 C -4.7400000,-6.0 -2.5,-3.7600000 -2.5,-1.0 z "
         style="fill-rule:evenodd;stroke:#fdfdfd;stroke-width:1pt;stroke-opacity:1;fill:#fdfdfd;fill-opacity:1"
         transform="scale(0.8) translate(7.4, 1)" />
    </marker>
  </defs>
  <sodipodi:namedview
     id="base"
     pagecolor="#ffffff"
     bordercolor="#666666"
     borderopacity="1.0"
     inkscape:pageopacity="0.0"
     inkscape:pageshadow="2"
     inkscape:zoom="2.8"
     inkscape:cx="-20.892857"
     inkscape:cy="55.357143"
     inkscape:document-units="mm"
     inkscape:current-layer="layer1"
     showgrid="false"
     units="px"
     inkscape:window-width="2560"
     inkscape:window-height="1006"
     inkscape:window-x="0"
     inkscape:window-y="0"
     inkscape:window-maximized="1"
     inkscape:pagecheckerboard="0" />
  <metadata
     id="metadata5">
    <rdf:RDF>
      <cc:Work
         rdf:about="">
        <dc:format>image/svg+xml</dc:format>
        <dc:type
           rdf:resource="http://purl.org/dc/dcmitype/StillImage" />
      </cc:Work>
    </rdf:RDF>
  </metadata>
  <g
     inkscape:label="Layer 1"
     inkscape:groupmode="layer"
     id="layer1"
     transform="translate(0,-251.49165)">
    <rect
       style="opacity:1;fill:#00d93a;fill-opacity:1;fill-rule:nonzero;stroke:#606060;stroke-width:0.28811;stroke-linecap:butt;stroke-linejoin:miter;stroke-miterlimit:4;stroke-dasharray:none;stroke-opacity:1"
       id="rect3699"
       width="33.578556"
       height="33.578556"
       x="4.7268395"
       y="256.47974"
       inkscape:export-filename="paymentreceived.png"
       inkscape:export-xdpi="67.289932"
       inkscape:export-ydpi="67.289932" />
    <circle
       style="opacity:1;fill:none;fill-opacity:1;fill-rule:nonzero;stroke:#efefef;stroke-width:0.597912;stroke-linecap:butt;stroke-linejoin:miter;stroke-miterlimit:4;stroke-dasharray:none;stroke-opacity:1"
       id="path3701"
       cx="21.536634"
       cy="280.27258"
       r="8.1273518" />
    <path
       style="fill:none;fill-rule:evenodd;stroke:#fdfdfd;stroke-width:0.928308;stroke-linecap:butt;stroke-linejoin:miter;stroke-miterlimit:4;stroke-dasharray:none;stroke-opacity:1"
       d="m 17.211316,281.11342 c 0.135459,0.0385 0.30934,-0.0278 0.448406,0 0.04097,0.008 0.07246,0.0428 0.112101,0.0561 0.04698,0.0156 0.187056,-0.0186 0.224202,0 0.02363,0.0118 0.03242,0.0442 0.05605,0.0561 0.03342,0.0167 0.07868,-0.0167 0.112102,0 0.02363,0.0118 0.03098,0.0477 0.05605,0.0561 0.03545,0.0118 0.07665,-0.0118 0.112102,0 0.02507,0.008 0.03406,0.0414 0.05605,0.0561 -0.0064,0.10619 0.130785,0.0374 0.168152,0.0561 0.04727,0.0236 0.06484,0.0885 0.112102,0.1121 0.164946,0.0825 -0.0738,-0.12984 0.112101,0.0561 0.03737,0.0374 0.06813,0.0828 0.112102,0.1121 0.01555,0.0104 0.04284,-0.0133 0.05605,0 0.02954,0.0295 0.02651,0.0826 0.05605,0.1121 0.02954,0.0295 0.08256,0.0265 0.112102,0.0561 0.02954,0.0295 0.03287,0.0773 0.05605,0.11211 0.01466,0.022 0.03737,0.0374 0.05605,0.0561 0.03737,0.0374 0.07474,0.0747 0.112102,0.11211 0.07474,0.0747 0.149468,0.14947 0.224203,0.2242 0.03737,0.0374 0.08279,0.0681 0.112101,0.11209 0.02317,0.0348 0.03288,0.0774 0.05605,0.11211 0.02931,0.044 0.08279,0.0681 0.112102,0.1121 0.02317,0.0347 0.03288,0.0773 0.05605,0.11211 0.02318,0.0347 0.08892,0.0773 0.112102,0.11209 0.02317,0.0347 0.03287,0.0773 0.05605,0.11211 0.04312,0.0647 0.125037,0.10348 0.168152,0.16814 0.01869,0.0374 0.03737,0.0747 0.05605,0.1121 0,0.0187 -0.0084,0.0394 0,0.0561 0.01182,0.0236 0.03737,0.0374 0.05605,0.0561 0.01869,0.0186 0.03737,0.0374 0.05605,0.0561 0.01868,0.0187 0.03737,0.0374 0.05605,0.0561 0.01869,0.0186 0.04423,0.0324 0.05605,0.0561 0.0084,0.0167 -0.0084,0.0394 0,0.0561 0.02022,0.0404 0.09188,0.0716 0.112102,0.1121 0.01671,0.0334 -0.02642,0.0857 0,0.11209 0.01321,0.0132 0.04284,-0.0132 0.05605,0 0.01321,0.0132 -0.01321,0.0428 0,0.0561 0.01321,0.0132 0.04284,0.0132 0.05605,0 0.0172,-0.0172 -0.0104,-0.1826 0,-0.22421 0.01013,-0.0405 0.04053,-0.0733 0.05605,-0.11211 0.06572,-0.16428 0.102437,-0.34016 0.168152,-0.50445 0.01551,-0.0388 0.04054,-0.0733 0.05605,-0.1121 0.02194,-0.0548 0.02963,-0.1153 0.05605,-0.16815 0.131595,-0.26319 0.08426,-0.0705 0.168152,-0.28026 0.02194,-0.0549 0.02963,-0.11531 0.05605,-0.16815 0.03013,-0.0602 0.08197,-0.1079 0.112102,-0.16815 0.02642,-0.0528 0.02963,-0.1153 0.05605,-0.16815 0.03013,-0.0602 0.08197,-0.1079 0.112102,-0.16816 0.02642,-0.0528 0.02963,-0.11531 0.05605,-0.16815 0.03013,-0.0602 0.08708,-0.1056 0.112102,-0.16815 0.01388,-0.0347 0,-0.0747 0,-0.1121 0.05605,-0.1121 0.101726,-0.23002 0.168152,-0.33631 0.02801,-0.0448 0.08409,-0.0673 0.112101,-0.1121 0.06643,-0.10628 0.112102,-0.2242 0.168152,-0.3363 0.01869,-0.0374 0.03099,-0.0787 0.05605,-0.1121 0.03171,-0.0423 0.08279,-0.0682 0.112101,-0.11211 0.04635,-0.0696 0.06576,-0.15467 0.112102,-0.2242 0.04312,-0.0646 0.125036,-0.10347 0.168152,-0.16815 0.02318,-0.0347 0.02651,-0.0826 0.05605,-0.1121 0.02954,-0.0295 0.08256,-0.0265 0.112101,-0.0561 0.02954,-0.0295 0.03098,-0.0787 0.05605,-0.1121 0.09417,-0.12555 0.242138,-0.21076 0.336304,-0.33631 0.02507,-0.0334 0.03098,-0.0787 0.05605,-0.1121 0.06341,-0.0845 0.160789,-0.13965 0.224203,-0.2242 0.02507,-0.0334 0.02651,-0.0826 0.05605,-0.1121 0.02954,-0.0295 0.08256,-0.0265 0.112101,-0.0561 0.136136,-0.13614 -0.01667,-0.0823 0.112102,-0.16816 0.03476,-0.0232 0.07734,-0.0328 0.112101,-0.0561 0.04397,-0.0293 0.06813,-0.0828 0.112101,-0.1121 0.03476,-0.0232 0.07868,-0.031 0.112102,-0.0561 0.04228,-0.0317 0.06982,-0.0804 0.112101,-0.11209 0.03343,-0.0251 0.07868,-0.031 0.112102,-0.0561 0.04228,-0.0317 0.06982,-0.0804 0.1121,-0.1121 0.06684,-0.0502 0.15736,-0.0619 0.224203,-0.1121 0.04228,-0.0317 0.06982,-0.0804 0.112103,-0.1121 0.03342,-0.0251 0.07474,-0.0374 0.1121,-0.0561 0.07474,-0.0374 0.149469,-0.0747 0.224204,-0.1121 0.03737,-0.0187 0.07734,-0.0329 0.1121,-0.0561 0.02199,-0.0146 0.03406,-0.0414 0.05605,-0.0561 0.06952,-0.0463 0.157359,-0.062 0.224204,-0.11211 0.04228,-0.0317 0.06982,-0.0804 0.112101,-0.1121 0.03342,-0.0251 0.07734,-0.0329 0.112102,-0.0561 0.02199,-0.0146 0.03406,-0.0414 0.05605,-0.0561 0.03476,-0.0232 0.07247,-0.0428 0.112103,-0.0561 0.01773,-0.006 0.04284,0.0133 0.05605,0 0.01322,-0.0132 -0.01671,-0.0477 0,-0.0561 0.03343,-0.0167 0.07665,0.0118 0.1121,0 0.02507,-0.008 0.03407,-0.0414 0.05606,-0.0561 0.03476,-0.0232 0.07247,-0.0428 0.1121,-0.0561 0.03545,-0.0118 0.07868,0.0167 0.112103,0 0.185895,-0.1859 -0.05285,0.0264 0.1121,-0.0561 0.02363,-0.0118 0.03242,-0.0443 0.05606,-0.0561 0.01671,-0.008 0.04284,0.0132 0.05605,0 0.01322,-0.0133 -0.01322,-0.0428 0,-0.0561 0.01145,-0.0115 0.145928,0.0111 0.168152,0 0.02363,-0.0118 0.03242,-0.0442 0.05605,-0.0561 0.01671,-0.008 0.04284,0.0133 0.05605,0 0.07473,-0.0747 -0.09342,-0.0561 0.05606,-0.0561"
       id="path4510"
       inkscape:connector-curvature="0"
       inkscape:export-xdpi="71.441864"
       inkscape:export-ydpi="71.441864" />
    <text
       xml:space="preserve"
       style="font-style:normal;font-variant:normal;font-weight:bold;font-stretch:normal;font-size:6.08542px;line-height:125%;font-family:'DejaVu Sans';-inkscape-font-specification:'DejaVu Sans Bold';text-align:center;writing-mode:lr-tb;text-anchor:middle;opacity:1;fill:#ffffff;fill-opacity:1;fill-rule:nonzero;stroke:none;stroke-width:1.565;stroke-linecap:butt;stroke-linejoin:miter;stroke-miterlimit:4;stroke-dasharray:none;stroke-opacity:1"
       x="2.4568453"
       y="254.28868"
       id="text4796" />
  </g>
</svg>
